<svg xmlns="http://www.w3.org/2000/svg" viewBox="0 0 64 64" width="64" height="64">
  <rect x="14" y="18" width="36" height="28" rx="6" fill="#D7CCC8" stroke="#8D6E63" stroke-width="2"/>
  <path d="M16 24 Q20 22 24 24 Q28 22 32 24 Q36 22 40 24 Q44 22 48 24" stroke="#8D6E63" stroke-width="1.5" fill="none"/>
  <path d="M16 32 Q20 30 24 32 Q28 30 32 32 Q36 30 40 32 Q44 30 48 32" stroke="#8D6E63" stroke-width="1.5" fill="none"/>
  <path d="M16 40 Q20 38 24 40 Q28 38 32 40 Q36 38 40 40 Q44 38 48 40" stroke="#8D6E63" stroke-width="1.5" fill="none"/>
  <circle cx="20" cy="28" r="1" fill="#8D6E63" opacity="0.4"/>
  <circle cx="44" cy="36" r="1" fill="#8D6E63" opacity="0.4"/>
</svg>